<svg xmlns="http://www.w3.org/2000/svg" width="72.915" height="59.637" viewBox="0 0 72.915 59.637"><defs><style>.a{fill:#105569;}</style></defs><g transform="translate(0 0)"><path class="a" d="M67.073,27.849A13.253,13.253,0,0,0,60.646,3H14.262A6.627,6.627,0,0,0,9.226,13.934,13.253,13.253,0,0,0,7.834,37.788a13.253,13.253,0,0,0,6.427,24.849H60.646A6.627,6.627,0,0,0,65.681,51.7a13.253,13.253,0,0,0,1.392-23.854ZM60.646,49.384H15.918a1.657,1.657,0,0,0,0,3.313H60.646a3.313,3.313,0,0,1,0,6.626H14.262a9.939,9.939,0,0,1,0-19.879H58.989a1.657,1.657,0,1,0,0-3.313H14.262a9.939,9.939,0,0,1,0-19.879H58.989a1.657,1.657,0,1,0,0-3.313H14.262a3.313,3.313,0,0,1,0-6.626H60.646a9.939,9.939,0,0,1,0,19.879H15.918a1.657,1.657,0,0,0,0,3.313H60.646a9.939,9.939,0,0,1,0,19.879Z" transform="translate(-0.996 -3)"/></g></svg>