<svg xmlns="http://www.w3.org/2000/svg" width="63.274" height="77.304" viewBox="0 0 63.274 77.304"><defs><style>.a{fill:#105569;}</style></defs><path class="a" d="M64.808,9.012a1.967,1.967,0,0,0,0-.422l-.316-.211A14.055,14.055,0,0,0,60.24,3.53,13.809,13.809,0,0,0,52.194,1h-.246a14.055,14.055,0,0,0-11.1,5.938A1.651,1.651,0,0,0,40.563,8.2c-3.127-.176-6.255-.176-9.452-.176C18.286,8.028,3,8.941,3,13.3a2.179,2.179,0,0,0,.808,1.757,1.9,1.9,0,0,0,.316.422L29.354,38.844V67.762c-3.865,0-12.3,1.054-12.3,5.236,0,5.306,12.615,5.306,14.055,5.306s14.055,0,14.055-5.271c0-4.181-8.433-5.06-12.3-5.236V38.668l21.54-19.923,6.852,4.779a1.827,1.827,0,0,0,1.019.316h.457a1.687,1.687,0,0,0,1.124-.7,14.055,14.055,0,0,0,.949-14.125ZM60.662,8.8l-6.43,3.514-.316-7.73a10.541,10.541,0,0,1,4.322,1.722A11.174,11.174,0,0,1,60.662,8.8ZM50.4,4.725l.281,7.028L44.674,7.676A10.541,10.541,0,0,1,50.4,4.725ZM31.111,11.542a113.472,113.472,0,0,1,13.739.527l3.092,2.179a156.508,156.508,0,0,1-16.831.808A110.615,110.615,0,0,1,8.482,13.3a110.616,110.616,0,0,1,22.629-1.757Zm0,7.028a151.48,151.48,0,0,0,19.537-1.124L31.111,35.506,11.645,17.48a139.322,139.322,0,0,0,19.466,1.089Zm0,56.221a22.594,22.594,0,0,1-10.225-1.757,22.594,22.594,0,0,1,10.225-1.757,22.594,22.594,0,0,1,10.225,1.757A22.594,22.594,0,0,1,31.111,74.79ZM61.716,19.553l-5.8-4.041L62.243,12A10.541,10.541,0,0,1,61.716,19.553Z" transform="translate(-3 -1)"/></svg>