<svg xmlns="http://www.w3.org/2000/svg" width="23.022" height="23.022" viewBox="0 0 23.022 23.022"><defs><style>.a{fill:#fff;}</style></defs><path class="a" d="M7.675,11.511a3.837,3.837,0,1,1,3.836,3.837,3.837,3.837,0,0,1-3.836-3.837m-2.074,0A5.911,5.911,0,1,0,11.511,5.6,5.911,5.911,0,0,0,5.6,11.511M16.275,5.366a1.382,1.382,0,1,0,1.382-1.381,1.382,1.382,0,0,0-1.382,1.381M6.86,20.881a6.359,6.359,0,0,1-2.138-.4A3.58,3.58,0,0,1,3.4,19.624,3.558,3.558,0,0,1,2.537,18.3a6.359,6.359,0,0,1-.4-2.138c-.056-1.213-.067-1.578-.067-4.652s.012-3.438.067-4.652a6.388,6.388,0,0,1,.4-2.138A3.58,3.58,0,0,1,3.4,3.4a3.554,3.554,0,0,1,1.324-.861,6.359,6.359,0,0,1,2.138-.4c1.213-.056,1.578-.067,4.651-.067s3.438.012,4.652.067a6.388,6.388,0,0,1,2.138.4,3.569,3.569,0,0,1,1.324.861,3.573,3.573,0,0,1,.861,1.324,6.359,6.359,0,0,1,.4,2.138c.056,1.214.067,1.578.067,4.652s-.011,3.438-.067,4.652a6.383,6.383,0,0,1-.4,2.138A3.811,3.811,0,0,1,18.3,20.485a6.359,6.359,0,0,1-2.138.4c-1.213.056-1.578.067-4.652.067s-3.438-.011-4.651-.067M6.765.07A8.444,8.444,0,0,0,3.971.6,5.649,5.649,0,0,0,1.932,1.932,5.633,5.633,0,0,0,.6,3.971,8.444,8.444,0,0,0,.07,6.765C.013,7.993,0,8.385,0,11.511s.013,3.518.07,4.746A8.444,8.444,0,0,0,.6,19.051,5.629,5.629,0,0,0,1.932,21.09a5.645,5.645,0,0,0,2.039,1.328,8.449,8.449,0,0,0,2.794.535c1.228.056,1.62.07,4.746.07s3.518-.013,4.746-.07a8.444,8.444,0,0,0,2.794-.535,5.886,5.886,0,0,0,3.367-3.367,8.42,8.42,0,0,0,.535-2.794c.056-1.228.069-1.62.069-4.746s-.013-3.518-.069-4.746a8.444,8.444,0,0,0-.535-2.794A5.661,5.661,0,0,0,21.09,1.932,5.645,5.645,0,0,0,19.052.6,8.43,8.43,0,0,0,16.258.07C15.031.014,14.638,0,11.512,0S7.994.013,6.765.07"/></svg>