<svg xmlns="http://www.w3.org/2000/svg" width="41.819" height="76.662" viewBox="0 0 41.819 76.662"><defs><style>.a{fill:#105569;}</style></defs><path class="a" d="M26.91,1A20.908,20.908,0,0,0,6,21.908a6.76,6.76,0,0,0,2.23,5.227,6.969,6.969,0,0,0,11.708-5.227,6.974,6.974,0,1,1,9.652,6.447L12.972,36.648A12.092,12.092,0,0,0,6,47.555V74.177a3.485,3.485,0,0,0,3.485,3.485H44.333a3.485,3.485,0,0,0,3.485-3.485V21.908A20.908,20.908,0,0,0,26.91,1ZM44.333,74.177H9.487V47.555a8.677,8.677,0,0,1,4.844-7.806l16.726-8.224a10.409,10.409,0,0,0-1.289-19.618,11.5,11.5,0,0,0-2.857-.453A10.454,10.454,0,0,0,16.456,21.908a3.276,3.276,0,0,1-3.485,3.485,3.276,3.276,0,0,1-3.485-3.485,17.423,17.423,0,1,1,34.846,0Z" transform="translate(-5.999 -1)"/></svg>