<svg xmlns="http://www.w3.org/2000/svg" width="60.408" height="66.553" viewBox="0 0 60.408 66.553"><defs><style>.a{fill:#105569;}</style></defs><g transform="translate(0 0)"><path class="a" d="M61.421,18.045l-7.406-2.479A2.841,2.841,0,0,0,50.388,17.2a25.209,25.209,0,0,0-7.708-2.176A27.2,27.2,0,0,0,24.544,20.8,75.9,75.9,0,0,0,9.764,15.022a7.678,7.678,0,0,0-7.617,4.322,1.542,1.542,0,0,0,.544,1.934l16.655,10.67a7.5,7.5,0,0,0,4.081,1.209H47.607a3.023,3.023,0,0,0,2.025,3.355l7.829,2.6a1.36,1.36,0,0,0,.484,0,1.531,1.531,0,0,0,.484-3.023L50.57,33.46l2.539-15.113L60.484,20.8a1.511,1.511,0,0,0,.967-2.841ZM20.978,29.41,5.623,19.556A4.081,4.081,0,0,1,9.34,18.045,62,62,0,0,1,22.036,23a16.442,16.442,0,0,0-1.572,1.662,1.542,1.542,0,0,0-.181,1.6,3.567,3.567,0,0,0,3.476,2.207A18.348,18.348,0,0,0,30.529,26.3a24.181,24.181,0,0,1,6.045-2.207,1.511,1.511,0,0,0,1.3-1.723,1.542,1.542,0,0,0-1.693-1.3,26.66,26.66,0,0,0-7.043,2.509,14.781,14.781,0,0,1-5.471,1.844,24.181,24.181,0,0,1,18.62-7.375,20.947,20.947,0,0,1,7.406,2.3l-1.632,9.793H23.426A4.383,4.383,0,0,1,20.978,29.41Z" transform="translate(-2.002 27.419)"/><path class="a" d="M6.509,40.377H57.894a4.534,4.534,0,0,0,1.33-8.856A27.2,27.2,0,0,0,36.342,7.339a4.534,4.534,0,1,0-8.282,0A27.2,27.2,0,0,0,5.179,31.521a4.534,4.534,0,0,0,1.33,8.856ZM30.69,5.617A1.511,1.511,0,1,1,32.2,7.128,1.511,1.511,0,0,1,30.69,5.617ZM32.2,10.151a24.181,24.181,0,0,1,23.97,21.159H8.231A24.181,24.181,0,0,1,32.2,10.151ZM6.509,34.332H57.894a1.511,1.511,0,0,1,0,3.023H6.509a1.511,1.511,0,0,1,0-3.023Z" transform="translate(-1.981 -0.959)"/></g></svg>